<mxfile host="app.diagrams.net" agent="Mozilla/5.0 (Macintosh; Intel Mac OS X 10_15_7) AppleWebKit/537.36 (KHTML, like Gecko) Chrome/134.0.0.0 Safari/537.36" version="26.2.4">
  <diagram name="Page-1" id="EvxpYkkEFhPI_myyJHa9">
    <mxGraphModel grid="1" page="1" gridSize="10" guides="1" tooltips="1" connect="1" arrows="1" fold="1" pageScale="1" pageWidth="850" pageHeight="1100" math="0" shadow="0">
      <root>
        <mxCell id="0" />
        <mxCell id="1" style="" parent="0" />
        <mxCell id="jE0Hs6O2nTx1BaMbFYz3-5" value="&lt;font style=&quot;font-size: 17px;&quot;&gt;&lt;span&gt;crm_cust_info&lt;/span&gt;&lt;/font&gt;" style="swimlane;fontStyle=0;childLayout=stackLayout;horizontal=1;startSize=30;horizontalStack=0;resizeParent=1;resizeParentMax=0;resizeLast=0;collapsible=1;marginBottom=0;whiteSpace=wrap;html=1;fillColor=#dae8fc;strokeColor=#6c8ebf;rounded=0;swimlaneLine=1;" vertex="1" parent="1">
          <mxGeometry x="265" y="190" width="140" height="90" as="geometry">
            <mxRectangle x="80" y="200" width="160" height="30" as="alternateBounds" />
          </mxGeometry>
        </mxCell>
        <mxCell id="jE0Hs6O2nTx1BaMbFYz3-6" value="&lt;div&gt;cst_id&lt;/div&gt;" style="text;strokeColor=none;fillColor=none;align=left;verticalAlign=middle;spacingLeft=4;spacingRight=4;overflow=hidden;points=[[0,0.5],[1,0.5]];portConstraint=eastwest;rotatable=0;whiteSpace=wrap;html=1;" vertex="1" parent="jE0Hs6O2nTx1BaMbFYz3-5">
          <mxGeometry y="30" width="140" height="30" as="geometry" />
        </mxCell>
        <mxCell id="jE0Hs6O2nTx1BaMbFYz3-26" value="cst_key" style="text;strokeColor=none;fillColor=none;align=left;verticalAlign=middle;spacingLeft=4;spacingRight=4;overflow=hidden;points=[[0,0.5],[1,0.5]];portConstraint=eastwest;rotatable=0;whiteSpace=wrap;html=1;" vertex="1" parent="jE0Hs6O2nTx1BaMbFYz3-5">
          <mxGeometry y="60" width="140" height="30" as="geometry" />
        </mxCell>
        <mxCell id="jE0Hs6O2nTx1BaMbFYz3-9" value="Customer Information&amp;nbsp;" style="text;html=1;align=center;verticalAlign=middle;whiteSpace=wrap;rounded=0;fontSize=15;" vertex="1" parent="1">
          <mxGeometry x="260" y="160" width="160" height="30" as="geometry" />
        </mxCell>
        <mxCell id="jE0Hs6O2nTx1BaMbFYz3-10" value="Integration Model" style="text;html=1;align=center;verticalAlign=middle;whiteSpace=wrap;rounded=0;fontStyle=1;fontSize=25;" vertex="1" parent="1">
          <mxGeometry x="30" y="10" width="240" height="30" as="geometry" />
        </mxCell>
        <mxCell id="jE0Hs6O2nTx1BaMbFYz3-12" value="&lt;font style=&quot;font-size: 17px;&quot;&gt;&lt;span&gt;crm_prd_info&lt;/span&gt;&lt;/font&gt;" style="swimlane;fontStyle=0;childLayout=stackLayout;horizontal=1;startSize=30;horizontalStack=0;resizeParent=1;resizeParentMax=0;resizeLast=0;collapsible=1;marginBottom=0;whiteSpace=wrap;html=1;fillColor=#dae8fc;strokeColor=#6c8ebf;rounded=0;swimlaneLine=1;" vertex="1" parent="1">
          <mxGeometry x="265" y="390" width="140" height="60" as="geometry">
            <mxRectangle x="80" y="200" width="160" height="30" as="alternateBounds" />
          </mxGeometry>
        </mxCell>
        <mxCell id="jE0Hs6O2nTx1BaMbFYz3-13" value="&lt;div&gt;prd_key&lt;/div&gt;" style="text;strokeColor=none;fillColor=none;align=left;verticalAlign=middle;spacingLeft=4;spacingRight=4;overflow=hidden;points=[[0,0.5],[1,0.5]];portConstraint=eastwest;rotatable=0;whiteSpace=wrap;html=1;" vertex="1" parent="jE0Hs6O2nTx1BaMbFYz3-12">
          <mxGeometry y="30" width="140" height="30" as="geometry" />
        </mxCell>
        <mxCell id="jE0Hs6O2nTx1BaMbFYz3-14" value="Product Information and History" style="text;html=1;align=center;verticalAlign=middle;whiteSpace=wrap;rounded=0;fontSize=15;" vertex="1" parent="1">
          <mxGeometry x="255" y="350" width="160" height="40" as="geometry" />
        </mxCell>
        <mxCell id="jE0Hs6O2nTx1BaMbFYz3-17" value="&lt;font style=&quot;font-size: 17px;&quot;&gt;&lt;span&gt;crm_sales_detail&lt;/span&gt;&lt;/font&gt;" style="swimlane;fontStyle=0;childLayout=stackLayout;horizontal=1;startSize=30;horizontalStack=0;resizeParent=1;resizeParentMax=0;resizeLast=0;collapsible=1;marginBottom=0;whiteSpace=wrap;html=1;fillColor=#dae8fc;strokeColor=#6c8ebf;rounded=0;swimlaneLine=1;" vertex="1" parent="1">
          <mxGeometry x="30" y="240" width="140" height="90" as="geometry">
            <mxRectangle x="80" y="200" width="160" height="30" as="alternateBounds" />
          </mxGeometry>
        </mxCell>
        <mxCell id="jE0Hs6O2nTx1BaMbFYz3-18" value="&lt;div&gt;sls_cust_id&lt;/div&gt;" style="text;strokeColor=none;fillColor=none;align=left;verticalAlign=middle;spacingLeft=4;spacingRight=4;overflow=hidden;points=[[0,0.5],[1,0.5]];portConstraint=eastwest;rotatable=0;whiteSpace=wrap;html=1;" vertex="1" parent="jE0Hs6O2nTx1BaMbFYz3-17">
          <mxGeometry y="30" width="140" height="30" as="geometry" />
        </mxCell>
        <mxCell id="jE0Hs6O2nTx1BaMbFYz3-20" value="sls_prd_key" style="text;strokeColor=none;fillColor=none;align=left;verticalAlign=middle;spacingLeft=4;spacingRight=4;overflow=hidden;points=[[0,0.5],[1,0.5]];portConstraint=eastwest;rotatable=0;whiteSpace=wrap;html=1;" vertex="1" parent="jE0Hs6O2nTx1BaMbFYz3-17">
          <mxGeometry y="60" width="140" height="30" as="geometry" />
        </mxCell>
        <mxCell id="jE0Hs6O2nTx1BaMbFYz3-19" value="Transactional Record about sales and orders" style="text;html=1;align=center;verticalAlign=middle;whiteSpace=wrap;rounded=0;fontSize=15;" vertex="1" parent="1">
          <mxGeometry x="20" y="200" width="160" height="40" as="geometry" />
        </mxCell>
        <mxCell id="jE0Hs6O2nTx1BaMbFYz3-23" value="&lt;span style=&quot;font-size: 17px;&quot;&gt;&lt;span&gt;erp_cust_az12&lt;/span&gt;&lt;/span&gt;" style="swimlane;fontStyle=0;childLayout=stackLayout;horizontal=1;startSize=30;horizontalStack=0;resizeParent=1;resizeParentMax=0;resizeLast=0;collapsible=1;marginBottom=0;whiteSpace=wrap;html=1;fillColor=#fff2cc;strokeColor=#d6b656;rounded=0;swimlaneLine=1;" vertex="1" parent="1">
          <mxGeometry x="590" y="170" width="140" height="60" as="geometry">
            <mxRectangle x="80" y="200" width="160" height="30" as="alternateBounds" />
          </mxGeometry>
        </mxCell>
        <mxCell id="jE0Hs6O2nTx1BaMbFYz3-24" value="&lt;div&gt;cid&lt;/div&gt;" style="text;strokeColor=none;fillColor=none;align=left;verticalAlign=middle;spacingLeft=4;spacingRight=4;overflow=hidden;points=[[0,0.5],[1,0.5]];portConstraint=eastwest;rotatable=0;whiteSpace=wrap;html=1;" vertex="1" parent="jE0Hs6O2nTx1BaMbFYz3-23">
          <mxGeometry y="30" width="140" height="30" as="geometry" />
        </mxCell>
        <mxCell id="jE0Hs6O2nTx1BaMbFYz3-25" value="Extra Customer Col: Birthday Info" style="text;html=1;align=center;verticalAlign=middle;whiteSpace=wrap;rounded=0;fontSize=13;" vertex="1" parent="1">
          <mxGeometry x="580" y="140" width="160" height="30" as="geometry" />
        </mxCell>
        <mxCell id="jE0Hs6O2nTx1BaMbFYz3-34" value="&lt;span style=&quot;font-size: 17px;&quot;&gt;&lt;span&gt;erp_loc_a101&lt;/span&gt;&lt;/span&gt;" style="swimlane;fontStyle=0;childLayout=stackLayout;horizontal=1;startSize=30;horizontalStack=0;resizeParent=1;resizeParentMax=0;resizeLast=0;collapsible=1;marginBottom=0;whiteSpace=wrap;html=1;fillColor=#fff2cc;strokeColor=#d6b656;rounded=0;swimlaneLine=1;" vertex="1" parent="1">
          <mxGeometry x="590" y="290" width="140" height="60" as="geometry">
            <mxRectangle x="80" y="200" width="160" height="30" as="alternateBounds" />
          </mxGeometry>
        </mxCell>
        <mxCell id="jE0Hs6O2nTx1BaMbFYz3-35" value="&lt;div&gt;cid&lt;/div&gt;" style="text;strokeColor=none;fillColor=none;align=left;verticalAlign=middle;spacingLeft=4;spacingRight=4;overflow=hidden;points=[[0,0.5],[1,0.5]];portConstraint=eastwest;rotatable=0;whiteSpace=wrap;html=1;" vertex="1" parent="jE0Hs6O2nTx1BaMbFYz3-34">
          <mxGeometry y="30" width="140" height="30" as="geometry" />
        </mxCell>
        <mxCell id="jE0Hs6O2nTx1BaMbFYz3-36" value="Extra Customer Col: Location (country) Info" style="text;html=1;align=center;verticalAlign=middle;whiteSpace=wrap;rounded=0;fontSize=12;" vertex="1" parent="1">
          <mxGeometry x="580" y="260" width="160" height="30" as="geometry" />
        </mxCell>
        <mxCell id="jE0Hs6O2nTx1BaMbFYz3-38" style="edgeStyle=orthogonalEdgeStyle;rounded=0;orthogonalLoop=1;jettySize=auto;html=1;" edge="1" parent="1" source="jE0Hs6O2nTx1BaMbFYz3-24" target="jE0Hs6O2nTx1BaMbFYz3-26">
          <mxGeometry relative="1" as="geometry" />
        </mxCell>
        <mxCell id="jE0Hs6O2nTx1BaMbFYz3-39" style="edgeStyle=orthogonalEdgeStyle;rounded=0;orthogonalLoop=1;jettySize=auto;html=1;entryX=1;entryY=0.5;entryDx=0;entryDy=0;" edge="1" parent="1" source="jE0Hs6O2nTx1BaMbFYz3-35" target="jE0Hs6O2nTx1BaMbFYz3-26">
          <mxGeometry relative="1" as="geometry" />
        </mxCell>
        <mxCell id="jE0Hs6O2nTx1BaMbFYz3-40" value="&lt;span style=&quot;font-size: 17px;&quot;&gt;&lt;span&gt;erp_px_cat_g1v2&lt;/span&gt;&lt;/span&gt;" style="swimlane;fontStyle=0;childLayout=stackLayout;horizontal=1;startSize=30;horizontalStack=0;resizeParent=1;resizeParentMax=0;resizeLast=0;collapsible=1;marginBottom=0;whiteSpace=wrap;html=1;fillColor=#fff2cc;strokeColor=#d6b656;rounded=0;swimlaneLine=1;" vertex="1" parent="1">
          <mxGeometry x="590" y="410" width="140" height="60" as="geometry">
            <mxRectangle x="80" y="200" width="160" height="30" as="alternateBounds" />
          </mxGeometry>
        </mxCell>
        <mxCell id="jE0Hs6O2nTx1BaMbFYz3-41" value="&lt;div&gt;id&lt;/div&gt;" style="text;strokeColor=none;fillColor=none;align=left;verticalAlign=middle;spacingLeft=4;spacingRight=4;overflow=hidden;points=[[0,0.5],[1,0.5]];portConstraint=eastwest;rotatable=0;whiteSpace=wrap;html=1;" vertex="1" parent="jE0Hs6O2nTx1BaMbFYz3-40">
          <mxGeometry y="30" width="140" height="30" as="geometry" />
        </mxCell>
        <mxCell id="jE0Hs6O2nTx1BaMbFYz3-42" value="Product category and maintenance" style="text;html=1;align=center;verticalAlign=middle;whiteSpace=wrap;rounded=0;fontSize=12;" vertex="1" parent="1">
          <mxGeometry x="580" y="380" width="160" height="30" as="geometry" />
        </mxCell>
        <mxCell id="jE0Hs6O2nTx1BaMbFYz3-43" style="edgeStyle=orthogonalEdgeStyle;rounded=0;orthogonalLoop=1;jettySize=auto;html=1;" edge="1" parent="1" source="jE0Hs6O2nTx1BaMbFYz3-41" target="jE0Hs6O2nTx1BaMbFYz3-13">
          <mxGeometry relative="1" as="geometry" />
        </mxCell>
        <mxCell id="jE0Hs6O2nTx1BaMbFYz3-44" value="" style="rounded=1;whiteSpace=wrap;html=1;fillColor=none;dashed=1;" vertex="1" parent="1">
          <mxGeometry x="20" y="100" width="420" height="400" as="geometry" />
        </mxCell>
        <mxCell id="jE0Hs6O2nTx1BaMbFYz3-47" value="&lt;b&gt;&lt;font style=&quot;font-size: 22px;&quot;&gt;CRM&lt;/font&gt;&lt;/b&gt;" style="rounded=1;whiteSpace=wrap;html=1;fillColor=#dae8fc;strokeColor=#6c8ebf;" vertex="1" parent="1">
          <mxGeometry x="155" y="85" width="140" height="30" as="geometry" />
        </mxCell>
        <mxCell id="jE0Hs6O2nTx1BaMbFYz3-49" value="" style="rounded=1;whiteSpace=wrap;html=1;fillColor=none;dashed=1;" vertex="1" parent="1">
          <mxGeometry x="470" y="100" width="340" height="400" as="geometry" />
        </mxCell>
        <mxCell id="jE0Hs6O2nTx1BaMbFYz3-50" value="&lt;b&gt;&lt;font style=&quot;font-size: 22px;&quot;&gt;ERP&lt;/font&gt;&lt;/b&gt;" style="rounded=1;whiteSpace=wrap;html=1;fillColor=#fff2cc;strokeColor=#d6b656;" vertex="1" parent="1">
          <mxGeometry x="580" y="85" width="140" height="30" as="geometry" />
        </mxCell>
        <mxCell id="djTS8lkkAsjvBwSm5Eqb-2" style="edgeStyle=orthogonalEdgeStyle;rounded=0;orthogonalLoop=1;jettySize=auto;html=1;" edge="1" parent="1" source="jE0Hs6O2nTx1BaMbFYz3-6" target="jE0Hs6O2nTx1BaMbFYz3-18">
          <mxGeometry relative="1" as="geometry" />
        </mxCell>
        <mxCell id="djTS8lkkAsjvBwSm5Eqb-3" style="edgeStyle=orthogonalEdgeStyle;rounded=0;orthogonalLoop=1;jettySize=auto;html=1;" edge="1" parent="1" source="jE0Hs6O2nTx1BaMbFYz3-13" target="jE0Hs6O2nTx1BaMbFYz3-20">
          <mxGeometry relative="1" as="geometry" />
        </mxCell>
        <mxCell id="7FMXICRUK_54ymhmVMXj-1" value="&lt;b&gt;PRODUCTS&lt;/b&gt;" style="rounded=0;whiteSpace=wrap;html=1;fillColor=#f8cecc;strokeColor=#b85450;" vertex="1" parent="1">
          <mxGeometry x="265" y="450" width="140" height="20" as="geometry" />
        </mxCell>
        <mxCell id="7FMXICRUK_54ymhmVMXj-2" value="&lt;b&gt;CUSTOMER&lt;/b&gt;" style="rounded=0;whiteSpace=wrap;html=1;fillColor=#d5e8d4;strokeColor=#82b366;" vertex="1" parent="1">
          <mxGeometry x="590" y="225" width="140" height="20" as="geometry" />
        </mxCell>
        <mxCell id="7FMXICRUK_54ymhmVMXj-3" value="&lt;b&gt;PRODUCTS&lt;/b&gt;" style="rounded=0;whiteSpace=wrap;html=1;fillColor=#f8cecc;strokeColor=#b85450;" vertex="1" parent="1">
          <mxGeometry x="590" y="470" width="140" height="20" as="geometry" />
        </mxCell>
        <mxCell id="7FMXICRUK_54ymhmVMXj-4" value="&lt;b&gt;CUSTOMER&lt;/b&gt;" style="rounded=0;whiteSpace=wrap;html=1;fillColor=#d5e8d4;strokeColor=#82b366;" vertex="1" parent="1">
          <mxGeometry x="590" y="350" width="140" height="20" as="geometry" />
        </mxCell>
        <mxCell id="7FMXICRUK_54ymhmVMXj-5" value="&lt;b&gt;CUSTOMER&lt;/b&gt;" style="rounded=0;whiteSpace=wrap;html=1;fillColor=#d5e8d4;strokeColor=#82b366;" vertex="1" parent="1">
          <mxGeometry x="265" y="280" width="140" height="20" as="geometry" />
        </mxCell>
        <mxCell id="7FMXICRUK_54ymhmVMXj-7" value="&lt;b&gt;CUSTOMER&lt;/b&gt;" style="rounded=0;whiteSpace=wrap;html=1;fillColor=#d5e8d4;strokeColor=#82b366;" vertex="1" parent="1">
          <mxGeometry x="30" y="330" width="140" height="20" as="geometry" />
        </mxCell>
      </root>
    </mxGraphModel>
  </diagram>
</mxfile>
